<svg version="1.1" viewBox="0.0 0.0 1000.0 1000.0" fill="none" stroke="none" stroke-linecap="square" stroke-miterlimit="10" xmlns:xlink="http://www.w3.org/1999/xlink" xmlns="http://www.w3.org/2000/svg"><clipPath id="g3c7d994f0fe_0_0.0"><path d="m0 0l1000.0 0l0 1000.0l-1000.0 0l0 -1000.0z" clip-rule="nonzero"/></clipPath><g clip-path="url(#g3c7d994f0fe_0_0.0)"><path fill="#000000" fill-opacity="0.0" d="m0 0l1000.0 0l0 1000.0l-1000.0 0z" fill-rule="evenodd"/><path fill="#000000" d="m72.220474 140.27164l0 0c0 -37.58362 30.467545 -68.05116 68.05116 -68.05116l719.45667 0c18.04834 0 35.35742 7.169655 48.119446 19.931725c12.762085 12.76207 19.931763 30.071152 19.931763 48.11944l0 719.45667c0 37.58368 -30.46753 68.05121 -68.05121 68.05121l-719.45667 0c-37.58362 0 -68.05116 -30.46753 -68.05116 -68.05121z" fill-rule="evenodd"/><path fill="#ff00ff" d="m288.15747 358.11163l0 0c0 -38.99991 31.615692 -70.61557 70.6156 -70.61557l282.45386 0l0 0c18.728394 0 36.68976 7.43985 49.93274 20.68283c13.243042 13.242981 20.682861 31.204346 20.682861 49.93274l0 283.77673c0 38.999878 -31.615662 70.6156 -70.6156 70.6156l-282.45386 0l0 0c-38.99991 0 -70.6156 -31.615723 -70.6156 -70.6156z" fill-rule="evenodd"/></g></svg>